<mxfile host="app.diagrams.net" modified="2021-05-01T16:18:19.771Z" agent="5.0 (Windows NT 10.0; Win64; x64) AppleWebKit/537.36 (KHTML, like Gecko) Chrome/90.0.4430.93 Safari/537.36" etag="qKdrIj1qFg7GNBi0dCyr" version="14.6.9" type="github">
  <diagram name="Page-1" id="efa7a0a1-bf9b-a30e-e6df-94a7791c09e9">
    <mxGraphModel dx="1079" dy="541" grid="1" gridSize="10" guides="1" tooltips="1" connect="1" arrows="1" fold="1" page="1" pageScale="1" pageWidth="826" pageHeight="1169" background="#ffffff" math="0" shadow="0">
      <root>
        <mxCell id="0" />
        <mxCell id="1" parent="0" />
        <mxCell id="19" value="&lt;p style=&quot;margin: 0px ; margin-top: 4px ; text-align: center ; text-decoration: underline&quot;&gt;&lt;b&gt;detalle_orden&lt;/b&gt;&lt;/p&gt;&lt;hr&gt;&lt;p style=&quot;margin: 0px ; margin-left: 8px&quot;&gt;order_id&lt;/p&gt;&lt;p style=&quot;margin: 0px ; margin-left: 8px&quot;&gt;order_item_id&lt;/p&gt;&lt;p style=&quot;margin: 0px ; margin-left: 8px&quot;&gt;product_id&lt;/p&gt;&lt;p style=&quot;margin: 0px ; margin-left: 8px&quot;&gt;seller_id&lt;/p&gt;&lt;p style=&quot;margin: 0px ; margin-left: 8px&quot;&gt;shipping_limit_date(Date)&lt;/p&gt;&lt;p style=&quot;margin: 0px ; margin-left: 8px&quot;&gt;price&lt;/p&gt;&lt;p style=&quot;margin: 0px ; margin-left: 8px&quot;&gt;freight_value&lt;/p&gt;" style="verticalAlign=top;align=left;overflow=fill;fontSize=12;fontFamily=Helvetica;html=1;strokeColor=#003366;shadow=1;fillColor=#D4E1F5;fontColor=#003366" parent="1" vertex="1">
          <mxGeometry x="320" y="240" width="230" height="176.31" as="geometry" />
        </mxCell>
        <mxCell id="21" value="&lt;p style=&quot;margin: 0px ; margin-top: 4px ; text-align: center ; text-decoration: underline&quot;&gt;&lt;b&gt;resena&lt;/b&gt;&lt;/p&gt;&lt;hr&gt;&lt;p style=&quot;margin: 0px ; margin-left: 8px&quot;&gt;review_id&lt;/p&gt;&lt;p style=&quot;margin: 0px ; margin-left: 8px&quot;&gt;order_id&lt;/p&gt;&lt;p style=&quot;margin: 0px ; margin-left: 8px&quot;&gt;review_score&lt;/p&gt;&lt;p style=&quot;margin: 0px ; margin-left: 8px&quot;&gt;review_comment_title&lt;/p&gt;&lt;p style=&quot;margin: 0px ; margin-left: 8px&quot;&gt;review_comment_message&lt;/p&gt;&lt;p style=&quot;margin: 0px ; margin-left: 8px&quot;&gt;review_creation_date(Date)&lt;/p&gt;&lt;p style=&quot;margin: 0px ; margin-left: 8px&quot;&gt;review_answer_timestamp(Date)&lt;/p&gt;" style="verticalAlign=top;align=left;overflow=fill;fontSize=12;fontFamily=Helvetica;html=1;strokeColor=#003366;shadow=1;fillColor=#D4E1F5;fontColor=#003366" parent="1" vertex="1">
          <mxGeometry x="631" y="245" width="195" height="175" as="geometry" />
        </mxCell>
        <mxCell id="25" value="&lt;p style=&quot;margin: 0px ; margin-top: 4px ; text-align: center ; text-decoration: underline&quot;&gt;&lt;b&gt;clientes&lt;/b&gt;&lt;/p&gt;&lt;hr&gt;&lt;p style=&quot;margin: 0px ; margin-left: 8px&quot;&gt;customer_id&lt;/p&gt;&lt;p style=&quot;margin: 0px ; margin-left: 8px&quot;&gt;customer_unique_id&lt;/p&gt;&lt;p style=&quot;margin: 0px ; margin-left: 8px&quot;&gt;customer_zip_code_prefix&lt;/p&gt;&lt;p style=&quot;margin: 0px ; margin-left: 8px&quot;&gt;customer_city&lt;/p&gt;&lt;p style=&quot;margin: 0px ; margin-left: 8px&quot;&gt;customer_state&lt;/p&gt;" style="verticalAlign=top;align=left;overflow=fill;fontSize=12;fontFamily=Helvetica;html=1;strokeColor=#003366;shadow=1;fillColor=#D4E1F5;fontColor=#003366" parent="1" vertex="1">
          <mxGeometry x="20" y="13.69" width="180" height="176.31" as="geometry" />
        </mxCell>
        <mxCell id="90" value="" style="endArrow=open;endSize=12;startArrow=diamondThin;startSize=14;startFill=0;edgeStyle=orthogonalEdgeStyle;entryX=0;entryY=0.5;entryDx=0;entryDy=0;exitX=1;exitY=0.5;exitDx=0;exitDy=0;" parent="1" source="Z_5dDUjdicOhz8nRKQMV-118" target="19" edge="1">
          <mxGeometry x="620" y="340" as="geometry">
            <mxPoint x="230" y="230" as="sourcePoint" />
            <mxPoint x="780" y="340" as="targetPoint" />
          </mxGeometry>
        </mxCell>
        <mxCell id="91" value="seller_id" style="resizable=0;align=left;verticalAlign=top;labelBackgroundColor=#ffffff;fontSize=10;strokeColor=#003366;shadow=1;fillColor=#D4E1F5;fontColor=#003366" parent="90" connectable="0" vertex="1">
          <mxGeometry x="-1" relative="1" as="geometry">
            <mxPoint x="10" as="offset" />
          </mxGeometry>
        </mxCell>
        <mxCell id="Z_5dDUjdicOhz8nRKQMV-114" value="&lt;p style=&quot;margin: 0px ; margin-top: 4px ; text-align: center ; text-decoration: underline&quot;&gt;&lt;b&gt;items&lt;/b&gt;&lt;/p&gt;&lt;hr&gt;&lt;p style=&quot;margin: 0px ; margin-left: 8px&quot;&gt;product_id&lt;/p&gt;&lt;p style=&quot;margin: 0px ; margin-left: 8px&quot;&gt;product_category_name&lt;/p&gt;&lt;p style=&quot;margin: 0px ; margin-left: 8px&quot;&gt;product_name_lenght&lt;/p&gt;&lt;p style=&quot;margin: 0px ; margin-left: 8px&quot;&gt;product_description_lenght&lt;/p&gt;&lt;p style=&quot;margin: 0px ; margin-left: 8px&quot;&gt;product_photos_qty&lt;/p&gt;&lt;p style=&quot;margin: 0px ; margin-left: 8px&quot;&gt;product_weight_g&lt;/p&gt;&lt;p style=&quot;margin: 0px ; margin-left: 8px&quot;&gt;product_length_cm&lt;/p&gt;&lt;p style=&quot;margin: 0px ; margin-left: 8px&quot;&gt;product_height_cm&lt;/p&gt;&lt;p style=&quot;margin: 0px ; margin-left: 8px&quot;&gt;product_width_cm&lt;/p&gt;" style="verticalAlign=top;align=left;overflow=fill;fontSize=12;fontFamily=Helvetica;html=1;strokeColor=#003366;shadow=1;fillColor=#D4E1F5;fontColor=#003366" vertex="1" parent="1">
          <mxGeometry x="730" y="13.690000000000001" width="200" height="177.54" as="geometry" />
        </mxCell>
        <mxCell id="Z_5dDUjdicOhz8nRKQMV-115" value="&lt;p style=&quot;margin: 0px ; margin-top: 4px ; text-align: center ; text-decoration: underline&quot;&gt;&lt;b&gt;orden&lt;/b&gt;&lt;/p&gt;&lt;hr&gt;&lt;p style=&quot;margin: 0px ; margin-left: 8px&quot;&gt;order_id&lt;/p&gt;&lt;p style=&quot;margin: 0px ; margin-left: 8px&quot;&gt;customer_id&lt;/p&gt;&lt;p style=&quot;margin: 0px ; margin-left: 8px&quot;&gt;order_status&lt;/p&gt;&lt;p style=&quot;margin: 0px ; margin-left: 8px&quot;&gt;order_purchase_timestamp(Date)&lt;/p&gt;&lt;p style=&quot;margin: 0px ; margin-left: 8px&quot;&gt;order_approved_at(Date)&lt;/p&gt;&lt;p style=&quot;margin: 0px ; margin-left: 8px&quot;&gt;order_delivered_carrier_date(Date)&lt;/p&gt;&lt;p style=&quot;margin: 0px ; margin-left: 8px&quot;&gt;order_delivered_customer_date(Date)&lt;/p&gt;&lt;p style=&quot;margin: 0px ; margin-left: 8px&quot;&gt;order_estimated_delivery_date(Date)&lt;/p&gt;" style="verticalAlign=top;align=left;overflow=fill;fontSize=12;fontFamily=Helvetica;html=1;strokeColor=#003366;shadow=1;fillColor=#D4E1F5;fontColor=#003366" vertex="1" parent="1">
          <mxGeometry x="320" y="13.69" width="230" height="176.31" as="geometry" />
        </mxCell>
        <mxCell id="Z_5dDUjdicOhz8nRKQMV-118" value="&lt;p style=&quot;margin: 0px ; margin-top: 4px ; text-align: center ; text-decoration: underline&quot;&gt;&lt;b&gt;vendedor&lt;/b&gt;&lt;/p&gt;&lt;hr&gt;&lt;p style=&quot;margin: 0px ; margin-left: 8px&quot;&gt;seller_id&lt;/p&gt;&lt;p style=&quot;margin: 0px ; margin-left: 8px&quot;&gt;seller_zip_code_prefix&lt;/p&gt;&lt;p style=&quot;margin: 0px ; margin-left: 8px&quot;&gt;seller_city&lt;/p&gt;&lt;p style=&quot;margin: 0px ; margin-left: 8px&quot;&gt;seller_state&lt;/p&gt;" style="verticalAlign=top;align=left;overflow=fill;fontSize=12;fontFamily=Helvetica;html=1;strokeColor=#003366;shadow=1;fillColor=#D4E1F5;fontColor=#003366" vertex="1" parent="1">
          <mxGeometry x="20" y="243.69" width="180" height="176.31" as="geometry" />
        </mxCell>
        <mxCell id="Z_5dDUjdicOhz8nRKQMV-119" value="&lt;p style=&quot;margin: 0px ; margin-top: 4px ; text-align: center ; text-decoration: underline&quot;&gt;&lt;b&gt;detalle_resena*-Vista&lt;/b&gt;&lt;/p&gt;&lt;hr&gt;&lt;p style=&quot;margin: 0px ; margin-left: 8px&quot;&gt;review_id&lt;/p&gt;&lt;p style=&quot;margin: 0px ; margin-left: 8px&quot;&gt;order_id&lt;/p&gt;&lt;p style=&quot;margin: 0px 0px 0px 8px&quot;&gt;order_item_id&lt;/p&gt;&lt;p style=&quot;margin: 0px 0px 0px 8px&quot;&gt;product_id&lt;/p&gt;&lt;p style=&quot;margin: 0px 0px 0px 8px&quot;&gt;seller_id&lt;/p&gt;&lt;p style=&quot;margin: 0px 0px 0px 8px&quot;&gt;shipping_limit_date(Date)&lt;/p&gt;&lt;p style=&quot;margin: 0px ; margin-left: 8px&quot;&gt;review_score&lt;/p&gt;&lt;p style=&quot;margin: 0px ; margin-left: 8px&quot;&gt;review_comment_title&lt;/p&gt;&lt;p style=&quot;margin: 0px ; margin-left: 8px&quot;&gt;review_comment_message&lt;/p&gt;&lt;p style=&quot;margin: 0px ; margin-left: 8px&quot;&gt;review_creation_date(Date)&lt;/p&gt;&lt;p style=&quot;margin: 0px ; margin-left: 8px&quot;&gt;review_answer_timestamp(Date)&lt;/p&gt;" style="verticalAlign=top;align=left;overflow=fill;fontSize=12;fontFamily=Helvetica;html=1;strokeColor=#003366;shadow=1;fillColor=#D4E1F5;fontColor=#003366" vertex="1" parent="1">
          <mxGeometry x="325" y="473" width="235" height="223.77" as="geometry" />
        </mxCell>
        <mxCell id="Z_5dDUjdicOhz8nRKQMV-120" value="&lt;p style=&quot;margin: 0px ; margin-top: 4px ; text-align: center ; text-decoration: underline&quot;&gt;&lt;b&gt;pagos&lt;/b&gt;&lt;/p&gt;&lt;hr&gt;&lt;p style=&quot;margin: 0px ; margin-left: 8px&quot;&gt;order_id&lt;/p&gt;&lt;p style=&quot;margin: 0px ; margin-left: 8px&quot;&gt;payment_sequential&lt;/p&gt;&lt;p style=&quot;margin: 0px ; margin-left: 8px&quot;&gt;payment_type&lt;/p&gt;&lt;p style=&quot;margin: 0px ; margin-left: 8px&quot;&gt;payment_installments&lt;/p&gt;&lt;p style=&quot;margin: 0px ; margin-left: 8px&quot;&gt;payment_value&lt;/p&gt;" style="verticalAlign=top;align=left;overflow=fill;fontSize=12;fontFamily=Helvetica;html=1;strokeColor=#003366;shadow=1;fillColor=#D4E1F5;fontColor=#003366" vertex="1" parent="1">
          <mxGeometry x="20" y="455" width="180" height="176.31" as="geometry" />
        </mxCell>
        <mxCell id="Z_5dDUjdicOhz8nRKQMV-121" value="&lt;p style=&quot;margin: 0px ; margin-top: 4px ; text-align: center ; text-decoration: underline&quot;&gt;&lt;b&gt;clientes_resena*-Vista&lt;/b&gt;&lt;/p&gt;&lt;hr&gt;&lt;p style=&quot;margin: 0px 0px 0px 8px&quot;&gt;review_id&lt;/p&gt;&lt;p style=&quot;margin: 0px 0px 0px 8px&quot;&gt;order_id&lt;/p&gt;&lt;p style=&quot;margin: 0px ; margin-left: 8px&quot;&gt;customer_id&lt;/p&gt;&lt;p style=&quot;margin: 0px ; margin-left: 8px&quot;&gt;customer_unique_id&lt;/p&gt;&lt;p style=&quot;margin: 0px ; margin-left: 8px&quot;&gt;customer_zip_code_prefix&lt;/p&gt;&lt;p style=&quot;margin: 0px ; margin-left: 8px&quot;&gt;customer_city&lt;/p&gt;&lt;p style=&quot;margin: 0px ; margin-left: 8px&quot;&gt;customer_state&lt;/p&gt;&lt;p style=&quot;margin: 0px 0px 0px 8px&quot;&gt;review_score&lt;/p&gt;&lt;p style=&quot;margin: 0px 0px 0px 8px&quot;&gt;review_comment_title&lt;/p&gt;&lt;p style=&quot;margin: 0px 0px 0px 8px&quot;&gt;review_comment_message&lt;/p&gt;&lt;p style=&quot;margin: 0px 0px 0px 8px&quot;&gt;review_creation_date(Date)&lt;/p&gt;&lt;p style=&quot;margin: 0px 0px 0px 8px&quot;&gt;review_answer_timestamp(Date)&lt;/p&gt;" style="verticalAlign=top;align=left;overflow=fill;fontSize=12;fontFamily=Helvetica;html=1;strokeColor=#003366;shadow=1;fillColor=#D4E1F5;fontColor=#003366" vertex="1" parent="1">
          <mxGeometry x="750" y="500" width="204" height="220" as="geometry" />
        </mxCell>
        <mxCell id="Z_5dDUjdicOhz8nRKQMV-122" value="" style="endArrow=open;endSize=12;startArrow=diamondThin;startSize=14;startFill=0;edgeStyle=orthogonalEdgeStyle;entryX=0;entryY=0.5;entryDx=0;entryDy=0;" edge="1" parent="1" source="25" target="Z_5dDUjdicOhz8nRKQMV-115">
          <mxGeometry x="620" y="350" as="geometry">
            <mxPoint x="200" y="111.84500000000003" as="sourcePoint" />
            <mxPoint x="320" y="111.84500000000003" as="targetPoint" />
          </mxGeometry>
        </mxCell>
        <mxCell id="Z_5dDUjdicOhz8nRKQMV-123" value="customer_id" style="resizable=0;align=left;verticalAlign=top;labelBackgroundColor=#ffffff;fontSize=10;strokeColor=#003366;shadow=1;fillColor=#D4E1F5;fontColor=#003366" connectable="0" vertex="1" parent="Z_5dDUjdicOhz8nRKQMV-122">
          <mxGeometry x="-1" relative="1" as="geometry">
            <mxPoint x="10" as="offset" />
          </mxGeometry>
        </mxCell>
        <mxCell id="Z_5dDUjdicOhz8nRKQMV-125" value="" style="endArrow=open;endSize=12;startArrow=diamondThin;startSize=14;startFill=0;edgeStyle=orthogonalEdgeStyle;entryX=0;entryY=0.5;entryDx=0;entryDy=0;exitX=0;exitY=0.75;exitDx=0;exitDy=0;" edge="1" parent="1" source="19" target="Z_5dDUjdicOhz8nRKQMV-119">
          <mxGeometry x="620" y="288.15" as="geometry">
            <mxPoint x="200" y="279.995" as="sourcePoint" />
            <mxPoint x="330" y="279.995" as="targetPoint" />
            <Array as="points">
              <mxPoint x="300" y="376" />
              <mxPoint x="300" y="568" />
            </Array>
          </mxGeometry>
        </mxCell>
        <mxCell id="Z_5dDUjdicOhz8nRKQMV-126" value="order_id" style="resizable=0;align=left;verticalAlign=top;labelBackgroundColor=#ffffff;fontSize=10;strokeColor=#003366;shadow=1;fillColor=#D4E1F5;fontColor=#003366" connectable="0" vertex="1" parent="Z_5dDUjdicOhz8nRKQMV-125">
          <mxGeometry x="-1" relative="1" as="geometry">
            <mxPoint x="-10" y="48" as="offset" />
          </mxGeometry>
        </mxCell>
        <mxCell id="Z_5dDUjdicOhz8nRKQMV-127" value="" style="endArrow=open;endSize=12;startArrow=diamondThin;startSize=14;startFill=0;edgeStyle=orthogonalEdgeStyle;exitX=1;exitY=0.5;exitDx=0;exitDy=0;" edge="1" parent="1" source="Z_5dDUjdicOhz8nRKQMV-115" target="21">
          <mxGeometry x="980" y="345.02" as="geometry">
            <mxPoint x="560" y="96.91999999999997" as="sourcePoint" />
            <mxPoint x="680" y="96.86500000000002" as="targetPoint" />
            <Array as="points">
              <mxPoint x="680" y="102" />
            </Array>
          </mxGeometry>
        </mxCell>
        <mxCell id="Z_5dDUjdicOhz8nRKQMV-128" value="order_id" style="resizable=0;align=left;verticalAlign=top;labelBackgroundColor=#ffffff;fontSize=10;strokeColor=#003366;shadow=1;fillColor=#D4E1F5;fontColor=#003366" connectable="0" vertex="1" parent="Z_5dDUjdicOhz8nRKQMV-127">
          <mxGeometry x="-1" relative="1" as="geometry">
            <mxPoint x="10" as="offset" />
          </mxGeometry>
        </mxCell>
        <mxCell id="Z_5dDUjdicOhz8nRKQMV-130" value="" style="endArrow=open;endSize=12;startArrow=diamondThin;startSize=14;startFill=0;edgeStyle=orthogonalEdgeStyle;entryX=0.5;entryY=0;entryDx=0;entryDy=0;exitX=0.5;exitY=1;exitDx=0;exitDy=0;" edge="1" parent="1" source="Z_5dDUjdicOhz8nRKQMV-115" target="19">
          <mxGeometry x="795" y="458.15" as="geometry">
            <mxPoint x="375" y="210.04999999999998" as="sourcePoint" />
            <mxPoint x="495" y="209.99500000000003" as="targetPoint" />
          </mxGeometry>
        </mxCell>
        <mxCell id="Z_5dDUjdicOhz8nRKQMV-131" value="order_id" style="resizable=0;align=left;verticalAlign=top;labelBackgroundColor=#ffffff;fontSize=10;strokeColor=#003366;shadow=1;fillColor=#D4E1F5;fontColor=#003366" connectable="0" vertex="1" parent="Z_5dDUjdicOhz8nRKQMV-130">
          <mxGeometry x="-1" relative="1" as="geometry">
            <mxPoint x="10" as="offset" />
          </mxGeometry>
        </mxCell>
        <mxCell id="Z_5dDUjdicOhz8nRKQMV-132" value="" style="endArrow=open;endSize=12;startArrow=diamondThin;startSize=14;startFill=0;edgeStyle=orthogonalEdgeStyle;entryX=1;entryY=0.25;entryDx=0;entryDy=0;exitX=0;exitY=0.75;exitDx=0;exitDy=0;" edge="1" parent="1" source="Z_5dDUjdicOhz8nRKQMV-115" target="Z_5dDUjdicOhz8nRKQMV-120">
          <mxGeometry x="630" y="448.15" as="geometry">
            <mxPoint x="210" y="200.04999999999998" as="sourcePoint" />
            <mxPoint x="330" y="199.99500000000003" as="targetPoint" />
          </mxGeometry>
        </mxCell>
        <mxCell id="Z_5dDUjdicOhz8nRKQMV-133" value="order_id" style="resizable=0;align=left;verticalAlign=top;labelBackgroundColor=#ffffff;fontSize=10;strokeColor=#003366;shadow=1;fillColor=#D4E1F5;fontColor=#003366" connectable="0" vertex="1" parent="Z_5dDUjdicOhz8nRKQMV-132">
          <mxGeometry x="-1" relative="1" as="geometry">
            <mxPoint x="-50" y="14" as="offset" />
          </mxGeometry>
        </mxCell>
        <mxCell id="Z_5dDUjdicOhz8nRKQMV-134" value="" style="endArrow=open;endSize=12;startArrow=diamondThin;startSize=14;startFill=0;edgeStyle=orthogonalEdgeStyle;entryX=1;entryY=0.25;entryDx=0;entryDy=0;exitX=0.25;exitY=1;exitDx=0;exitDy=0;" edge="1" parent="1" source="21" target="Z_5dDUjdicOhz8nRKQMV-119">
          <mxGeometry x="905" y="367.25" as="geometry">
            <mxPoint x="615" y="455.02250000000015" as="sourcePoint" />
            <mxPoint x="612.5" y="647.215" as="targetPoint" />
            <Array as="points">
              <mxPoint x="680" y="455" />
              <mxPoint x="585" y="455" />
              <mxPoint x="585" y="512" />
            </Array>
          </mxGeometry>
        </mxCell>
        <mxCell id="Z_5dDUjdicOhz8nRKQMV-135" value="review_id" style="resizable=0;align=left;verticalAlign=top;labelBackgroundColor=#ffffff;fontSize=10;strokeColor=#003366;shadow=1;fillColor=#D4E1F5;fontColor=#003366" connectable="0" vertex="1" parent="Z_5dDUjdicOhz8nRKQMV-134">
          <mxGeometry x="-1" relative="1" as="geometry">
            <mxPoint x="-30" y="34" as="offset" />
          </mxGeometry>
        </mxCell>
        <mxCell id="Z_5dDUjdicOhz8nRKQMV-136" value="" style="endArrow=open;endSize=12;startArrow=diamondThin;startSize=14;startFill=0;edgeStyle=orthogonalEdgeStyle;exitX=0;exitY=0.25;exitDx=0;exitDy=0;entryX=1;entryY=0.5;entryDx=0;entryDy=0;" edge="1" parent="1" source="Z_5dDUjdicOhz8nRKQMV-114" target="19">
          <mxGeometry x="1030" y="318.15" as="geometry">
            <mxPoint x="610" y="70.04999999999998" as="sourcePoint" />
            <mxPoint x="650" y="70" as="targetPoint" />
            <Array as="points">
              <mxPoint x="620" y="58" />
              <mxPoint x="620" y="328" />
            </Array>
          </mxGeometry>
        </mxCell>
        <mxCell id="Z_5dDUjdicOhz8nRKQMV-137" value="product_id" style="resizable=0;align=left;verticalAlign=top;labelBackgroundColor=#ffffff;fontSize=10;strokeColor=#003366;shadow=1;fillColor=#D4E1F5;fontColor=#003366" connectable="0" vertex="1" parent="Z_5dDUjdicOhz8nRKQMV-136">
          <mxGeometry x="-1" relative="1" as="geometry">
            <mxPoint x="-80" y="-28" as="offset" />
          </mxGeometry>
        </mxCell>
        <mxCell id="Z_5dDUjdicOhz8nRKQMV-139" value="" style="endArrow=open;endSize=12;startArrow=diamondThin;startSize=14;startFill=0;edgeStyle=orthogonalEdgeStyle;entryX=0.75;entryY=0;entryDx=0;entryDy=0;exitX=0.5;exitY=1;exitDx=0;exitDy=0;" edge="1" parent="1" source="21" target="Z_5dDUjdicOhz8nRKQMV-121">
          <mxGeometry x="1140" y="694.4300000000001" as="geometry">
            <mxPoint x="720" y="446.33" as="sourcePoint" />
            <mxPoint x="840" y="446.27500000000003" as="targetPoint" />
          </mxGeometry>
        </mxCell>
        <mxCell id="Z_5dDUjdicOhz8nRKQMV-140" value="review_id" style="resizable=0;align=left;verticalAlign=top;labelBackgroundColor=#ffffff;fontSize=10;strokeColor=#003366;shadow=1;fillColor=#D4E1F5;fontColor=#003366" connectable="0" vertex="1" parent="Z_5dDUjdicOhz8nRKQMV-139">
          <mxGeometry x="-1" relative="1" as="geometry">
            <mxPoint x="10" as="offset" />
          </mxGeometry>
        </mxCell>
        <mxCell id="Z_5dDUjdicOhz8nRKQMV-141" value="" style="endArrow=open;endSize=12;startArrow=diamondThin;startSize=14;startFill=0;edgeStyle=orthogonalEdgeStyle;exitX=1;exitY=0.75;exitDx=0;exitDy=0;entryX=0;entryY=0.25;entryDx=0;entryDy=0;" edge="1" parent="1" source="Z_5dDUjdicOhz8nRKQMV-115" target="Z_5dDUjdicOhz8nRKQMV-121">
          <mxGeometry x="990" y="355.02" as="geometry">
            <mxPoint x="560" y="111.84500000000003" as="sourcePoint" />
            <mxPoint x="750" y="220" as="targetPoint" />
            <Array as="points">
              <mxPoint x="600" y="146" />
              <mxPoint x="600" y="545" />
            </Array>
          </mxGeometry>
        </mxCell>
        <mxCell id="Z_5dDUjdicOhz8nRKQMV-142" value="order_id" style="resizable=0;align=left;verticalAlign=top;labelBackgroundColor=#ffffff;fontSize=10;strokeColor=#003366;shadow=1;fillColor=#D4E1F5;fontColor=#003366" connectable="0" vertex="1" parent="Z_5dDUjdicOhz8nRKQMV-141">
          <mxGeometry x="-1" relative="1" as="geometry">
            <mxPoint x="10" y="4" as="offset" />
          </mxGeometry>
        </mxCell>
        <mxCell id="Z_5dDUjdicOhz8nRKQMV-143" value="" style="endArrow=open;endSize=12;startArrow=diamondThin;startSize=14;startFill=0;edgeStyle=orthogonalEdgeStyle;entryX=0.25;entryY=1;entryDx=0;entryDy=0;exitX=1;exitY=0.75;exitDx=0;exitDy=0;" edge="1" parent="1" source="25" target="Z_5dDUjdicOhz8nRKQMV-121">
          <mxGeometry x="620" y="378.2" as="geometry">
            <mxPoint x="200" y="130.09999999999997" as="sourcePoint" />
            <mxPoint x="320" y="130.04500000000002" as="targetPoint" />
            <Array as="points">
              <mxPoint x="230" y="146" />
              <mxPoint x="230" y="720" />
              <mxPoint x="682" y="720" />
            </Array>
          </mxGeometry>
        </mxCell>
        <mxCell id="Z_5dDUjdicOhz8nRKQMV-144" value="customer_id" style="resizable=0;align=left;verticalAlign=top;labelBackgroundColor=#ffffff;fontSize=10;strokeColor=#003366;shadow=1;fillColor=#D4E1F5;fontColor=#003366" connectable="0" vertex="1" parent="Z_5dDUjdicOhz8nRKQMV-143">
          <mxGeometry x="-1" relative="1" as="geometry">
            <mxPoint x="10" as="offset" />
          </mxGeometry>
        </mxCell>
        <mxCell id="Z_5dDUjdicOhz8nRKQMV-145" value="&lt;span style=&quot;color: rgb(32 , 33 , 36) ; font-family: &amp;#34;roboto&amp;#34; , &amp;#34;arial&amp;#34; , sans-serif ; font-size: 13px ; background-color: rgb(255 , 255 , 255)&quot;&gt;&lt;br&gt;&lt;b&gt;CONSULTAS&lt;/b&gt;&lt;br&gt;* Cruzar las reseñas malas con el tiempo de entrega de las ordenes.&lt;br&gt;* Identificar si un cliente con reseña mala volvió a comprar nuevamente.&lt;br&gt;* Medir calificación por promedio por producto/categoría&lt;br&gt;* Categorías de producto peor calificadas&lt;br&gt;* Medir calificación por vendedor&lt;br&gt;* Identificar si hay clientes con muchas reseñas malas&lt;br&gt;* Zona/estados de donde hacen reviews&lt;br&gt;* Wordcount de descripción de reseñas&lt;/span&gt;" style="text;html=1;strokeColor=none;fillColor=none;align=left;verticalAlign=middle;whiteSpace=wrap;rounded=0;" vertex="1" parent="1">
          <mxGeometry x="40" y="740" width="410" height="170" as="geometry" />
        </mxCell>
        <mxCell id="Z_5dDUjdicOhz8nRKQMV-146" value="&lt;span style=&quot;color: rgb(32 , 33 , 36) ; font-family: &amp;#34;roboto&amp;#34; , &amp;#34;arial&amp;#34; , sans-serif ; font-size: 13px ; background-color: rgb(255 , 255 , 255)&quot;&gt;&lt;br&gt;&lt;b&gt;MEJORAS DB&lt;br&gt;&lt;/b&gt;* Cruzar las reseñas malas con el tiempo de entrega de las ordenes.&lt;br&gt;* Identificar si un cliente con reseña mala volvió a comprar nuevamente.&lt;br&gt;* Medir calificación por promedio por producto/categoría&lt;br&gt;* Categorías de producto peor calificadas&lt;br&gt;* Medir calificación por vendedor&lt;br&gt;* Identificar si hay clientes con muchas reseñas malas&lt;br&gt;* Zona/estados de donde hacen reviews&lt;br&gt;* Wordcount de descripción de reseñas&lt;/span&gt;" style="text;html=1;strokeColor=none;fillColor=none;align=left;verticalAlign=middle;whiteSpace=wrap;rounded=0;" vertex="1" parent="1">
          <mxGeometry x="530" y="750" width="410" height="170" as="geometry" />
        </mxCell>
      </root>
    </mxGraphModel>
  </diagram>
</mxfile>
